<svg id="wave" style="transform:rotate(180deg); transition: 0.3s" viewBox="0 0 1440 490" version="1.1" xmlns="http://www.w3.org/2000/svg"><defs><linearGradient id="sw-gradient-0" x1="0" x2="0" y1="1" y2="0"><stop stop-color="rgba(43, 120, 228, 1)" offset="0%"></stop><stop stop-color="rgba(43, 120, 228, 1)" offset="100%"></stop></linearGradient></defs><path style="transform:translate(0, 0px); opacity:1" fill="url(#sw-gradient-0)" d="M0,441L30,408.3C60,376,120,310,180,277.7C240,245,300,245,360,204.2C420,163,480,82,540,98C600,114,660,229,720,285.8C780,343,840,343,900,326.7C960,310,1020,278,1080,277.7C1140,278,1200,310,1260,318.5C1320,327,1380,310,1440,294C1500,278,1560,261,1620,236.8C1680,212,1740,180,1800,163.3C1860,147,1920,147,1980,138.8C2040,131,2100,114,2160,122.5C2220,131,2280,163,2340,163.3C2400,163,2460,131,2520,114.3C2580,98,2640,98,2700,114.3C2760,131,2820,163,2880,155.2C2940,147,3000,98,3060,65.3C3120,33,3180,16,3240,24.5C3300,33,3360,65,3420,98C3480,131,3540,163,3600,187.8C3660,212,3720,229,3780,236.8C3840,245,3900,245,3960,261.3C4020,278,4080,310,4140,343C4200,376,4260,408,4290,424.7L4320,441L4320,490L4290,490C4260,490,4200,490,4140,490C4080,490,4020,490,3960,490C3900,490,3840,490,3780,490C3720,490,3660,490,3600,490C3540,490,3480,490,3420,490C3360,490,3300,490,3240,490C3180,490,3120,490,3060,490C3000,490,2940,490,2880,490C2820,490,2760,490,2700,490C2640,490,2580,490,2520,490C2460,490,2400,490,2340,490C2280,490,2220,490,2160,490C2100,490,2040,490,1980,490C1920,490,1860,490,1800,490C1740,490,1680,490,1620,490C1560,490,1500,490,1440,490C1380,490,1320,490,1260,490C1200,490,1140,490,1080,490C1020,490,960,490,900,490C840,490,780,490,720,490C660,490,600,490,540,490C480,490,420,490,360,490C300,490,240,490,180,490C120,490,60,490,30,490L0,490Z"></path></svg>